<?xml version="1.0" encoding="utf-8"?>
<!-- Generator: Adobe Illustrator 19.0.0, SVG Export Plug-In . SVG Version: 6.00 Build 0)  -->
<svg version="1.1" xmlns="http://www.w3.org/2000/svg" xmlns:xlink="http://www.w3.org/1999/xlink" x="0px" y="0px"
	 viewBox="0 0 595.3 234.8" style="enable-background:new 0 0 595.3 234.8;" xml:space="preserve">
<style type="text/css">
	.st0{fill:#FFFFFF;}
	.st1{font-family:'Caviar Dreams';}
	.st2{font-size:29.0156px;}
	.st3{font-family:'Quantify';}
	.st4{font-size:99.3402px;}
</style>
<g id="tipi-logo">
	<path class="st0" d="M107.1,47.2c-1.6,0.2-2.9,0.4-4.2,0.5c-1-2.9-1.8-6-3.2-8.7c-2.5-4.7-0.8-8.4,1.9-12.5
		c1.8,4.5,3.5,8.5,5.1,12.6c0,0-0.1,0.2-0.1,0.2c0,0,0.1,0,0.1-0.1c0,0.1,0,0.2,0,0.3c0,0,0,0,0-0.1C106.9,41.6,106.8,45,107.1,47.2
		c8.7-1.9,10.4-5,11.9-14.6c-4.2,2.3-8.2,4.5-12.2,6.6c0,0,0-0.1,0-0.1c0,0,0,0,0,0c0,0,0,0,0,0c0,0,0,0,0,0
		c0.5-7.8,1-15.5,1.7-24.5C49.2,71.4,17.4,139.7,10.5,220.3c23.7-7.8,47.1-12.4,71.1-14.4c24-2.1,47.9-1,72.6,2.5
		C123.3,158.6,108,105,107.1,47.2z M85.5,194.5c-3.1-0.2-4.6-1.4-5.2-4.2c-1.8-9.9-3.7-19.9-5.3-29.9c-0.5-2.9-0.1-5.9-0.1-10.3
		c-3.5,4-6.5,7-9.1,10.3c-6.9,8.7-12,18.4-15.1,29.1c-0.8,2.8-2.1,3.9-5.1,4.1c-9.6,0.5-19.2,1.4-29.5,2.1c1.2-4.5,2.3-8.8,3.5-13
		C35.3,131,63,86.7,101.3,48.9c0.4-0.4,1-0.7,1.5-1c-0.5,8.4-1.2,16.8-1.3,25.2c-0.6,42.1,6.8,82.8,22.6,121.9
		c0.6,1.5,1.2,3.1,2.1,5.4c-7-1.2-13.4-2.4-19.8-3.3C99.4,196,92.5,195,85.5,194.5z"/>
</g>
<g id="bottom_x5F_text">
	<text transform="matrix(1.479 0 0 1 149.5425 174.047)" class="st0 st1 st2">SOLUTIONS DIGITALES</text>
</g>
<g id="TIPIKALL">
	<text transform="matrix(1.132 0 0 1 128.4995 130.8585)" class="st0 st3 st4">TIPIKALL</text>
</g>
</svg>
